<?xml version="1.0" encoding="UTF-8" standalone="no"?>
<svg
   xmlns:dc="http://purl.org/dc/elements/1.1/"
   xmlns:cc="http://creativecommons.org/ns#"
   xmlns:rdf="http://www.w3.org/1999/02/22-rdf-syntax-ns#"
   xmlns:svg="http://www.w3.org/2000/svg"
   xmlns="http://www.w3.org/2000/svg"
   xmlns:xlink="http://www.w3.org/1999/xlink"
   xmlns:sodipodi="http://sodipodi.sourceforge.net/DTD/sodipodi-0.dtd"
   xmlns:inkscape="http://www.inkscape.org/namespaces/inkscape"
   width="614"
   height="564"
   version="1.1"
   id="svg316"
   sodipodi:docname="bit_expr.svg"
   inkscape:version="0.92.3 (2405546, 2018-03-11)">
  <metadata
     id="metadata320">
    <rdf:RDF>
      <cc:Work
         rdf:about="">
        <dc:format>image/svg+xml</dc:format>
        <dc:type
           rdf:resource="http://purl.org/dc/dcmitype/StillImage" />
      </cc:Work>
    </rdf:RDF>
  </metadata>
  <sodipodi:namedview
     pagecolor="#ffffff"
     bordercolor="#666666"
     borderopacity="1"
     objecttolerance="10"
     gridtolerance="10"
     guidetolerance="10"
     inkscape:pageopacity="0"
     inkscape:pageshadow="2"
     inkscape:window-width="783"
     inkscape:window-height="905"
     id="namedview318"
     showgrid="false"
     inkscape:zoom="1.0522023"
     inkscape:cx="307"
     inkscape:cy="282"
     inkscape:window-x="532"
     inkscape:window-y="63"
     inkscape:window-maximized="0"
     inkscape:current-layer="svg316">
    <inkscape:grid
       type="xygrid"
       id="grid4025" />
  </sodipodi:namedview>
  <defs
     id="defs168">
    <style
       type="text/css"
       id="style166">
               @namespace &quot;http://www.w3.org/2000/svg&quot;;
               .line                 {fill: none; stroke: #0D2026;}
               .bold-line            {stroke: #050D0F; shape-rendering: crispEdges; stroke-width:
               2; }
               .thin-line            {stroke: #081317; shape-rendering: crispEdges}
               .filled               {fill: #0D2026; stroke: none;}
               text.terminal         {font-family: Verdana, Sans-serif;
               font-size: 12px;
               fill: #050D0F;
               font-weight: bold;
               }
               text.nonterminal      {font-family: Verdana, Sans-serif;
               font-size: 12px;
               fill: #061013;
               }
               text.regexp           {font-family: Verdana, Sans-serif;
               font-size: 12px;
               fill: #081317;
               }
               rect, circle, polygon {fill: #0D2026; stroke: #0D2026;}
               rect.terminal         {fill: #66B3CC; stroke: #0D2026;}
               rect.nonterminal      {fill: #9ECFDF; stroke: #0D2026;}
               rect.text             {fill: none; stroke: none;}
               polygon.regexp        {fill: #BBDDE8; stroke: #0D2026;}

            </style>
  </defs>
  <polygon
     points="9 17 1 13 1 21"
     id="polygon170" />
  <polygon
     points="17 17 9 13 9 21"
     id="polygon172" />
  <a
     xlink:href="#bit_expr"
     xlink:title="bit_expr"
     id="a180">
    <rect
       x="51"
       y="3"
       width="68"
       height="32"
       id="rect174" />
    <rect
       x="49"
       y="1"
       width="68"
       height="32"
       class="nonterminal"
       id="rect176" />
    <text
       class="nonterminal"
       x="59"
       y="21"
       id="text178">bit_expr</text>
  </a>
  <rect
     x="179"
     y="3"
     width="26"
     height="32"
     rx="10"
     id="rect182" />
  <rect
     x="177"
     y="1"
     width="26"
     height="32"
     class="terminal"
     rx="10"
     id="rect184" />
  <text
     class="terminal"
     x="187"
     y="21"
     id="text186">|</text>
  <rect
     x="179"
     y="47"
     width="30"
     height="32"
     rx="10"
     id="rect188" />
  <rect
     x="177"
     y="45"
     width="30"
     height="32"
     class="terminal"
     rx="10"
     id="rect190" />
  <text
     class="terminal"
     x="187"
     y="65"
     id="text192">&amp;</text>
  <a
     xlink:href="#SHIFT_LEFT"
     xlink:title="SHIFT_LEFT"
     id="a200">
    <rect
       x="179"
       y="91"
       width="90"
       height="32"
       id="rect194" />
    <rect
       x="177"
       y="89"
       width="90"
       height="32"
       class="nonterminal"
       id="rect196" />
    <text
       class="nonterminal"
       x="187"
       y="109"
       id="text198">SHIFT_LEFT</text>
  </a>
  <a
     xlink:href="#SHIFT_RIGHT"
     xlink:title="SHIFT_RIGHT"
     id="a208">
    <rect
       x="179"
       y="135"
       width="98"
       height="32"
       id="rect202" />
    <rect
       x="177"
       y="133"
       width="98"
       height="32"
       class="nonterminal"
       id="rect204" />
    <text
       class="nonterminal"
       x="187"
       y="153"
       id="text206">SHIFT_RIGHT</text>
  </a>
  <rect
     x="179"
     y="179"
     width="28"
     height="32"
     rx="10"
     id="rect210" />
  <rect
     x="177"
     y="177"
     width="28"
     height="32"
     class="terminal"
     rx="10"
     id="rect212" />
  <text
     class="terminal"
     x="187"
     y="197"
     id="text214">*</text>
  <rect
     x="179"
     y="223"
     width="28"
     height="32"
     rx="10"
     id="rect216" />
  <rect
     x="177"
     y="221"
     width="28"
     height="32"
     class="terminal"
     rx="10"
     id="rect218" />
  <text
     class="terminal"
     x="187"
     y="241"
     id="text220">/</text>
  <rect
     x="179"
     y="267"
     width="34"
     height="32"
     rx="10"
     id="rect222" />
  <rect
     x="177"
     y="265"
     width="34"
     height="32"
     class="terminal"
     rx="10"
     id="rect224" />
  <text
     class="terminal"
     x="187"
     y="285"
     id="text226">%</text>
  <a
     xlink:href="#DIV_SYM"
     xlink:title="DIV_SYM"
     id="a234">
    <rect
       x="179"
       y="311"
       width="74"
       height="32"
       id="rect228" />
    <rect
       x="177"
       y="309"
       width="74"
       height="32"
       class="nonterminal"
       id="rect230" />
    <text
       class="nonterminal"
       x="187"
       y="329"
       id="text232">DIV_SYM</text>
  </a>
  <a
     xlink:href="#MOD_SYM"
     xlink:title="MOD_SYM"
     id="a242">
    <rect
       x="179"
       y="355"
       width="82"
       height="32"
       id="rect236" />
    <rect
       x="177"
       y="353"
       width="82"
       height="32"
       class="nonterminal"
       id="rect238" />
    <text
       class="nonterminal"
       x="187"
       y="373"
       id="text240">MOD_SYM</text>
  </a>
  <rect
     x="179"
     y="399"
     width="30"
     height="32"
     rx="10"
     id="rect244" />
  <rect
     x="177"
     y="397"
     width="30"
     height="32"
     class="terminal"
     rx="10"
     id="rect246" />
  <text
     class="terminal"
     x="187"
     y="417"
     id="text248">^</text>
  <a
     xlink:href="#bit_expr"
     xlink:title="bit_expr"
     id="a256">
    <rect
       x="317"
       y="3"
       width="68"
       height="32"
       id="rect250" />
    <rect
       x="315"
       y="1"
       width="68"
       height="32"
       class="nonterminal"
       id="rect252" />
    <text
       class="nonterminal"
       x="325"
       y="21"
       id="text254">bit_expr</text>
  </a>
  <rect
     x="179"
     y="443"
     width="30"
     height="32"
     rx="10"
     id="rect258" />
  <rect
     x="177"
     y="441"
     width="30"
     height="32"
     class="terminal"
     rx="10"
     id="rect260" />
  <text
     class="terminal"
     x="187"
     y="461"
     id="text262">+</text>
  <rect
     x="179"
     y="487"
     width="26"
     height="32"
     rx="10"
     id="rect264" />
  <rect
     x="177"
     y="485"
     width="26"
     height="32"
     class="terminal"
     rx="10"
     id="rect266" />
  <text
     class="terminal"
     x="187"
     y="505"
     id="text268">-</text>
  <a
     xlink:href="#bit_expr"
     xlink:title="bit_expr"
     id="a276">
    <rect
       x="269"
       y="443"
       width="68"
       height="32"
       id="rect270" />
    <rect
       x="267"
       y="441"
       width="68"
       height="32"
       class="nonterminal"
       id="rect272" />
    <text
       class="nonterminal"
       x="277"
       y="461"
       id="text274">bit_expr</text>
  </a>
  <a
     xlink:href="#INTERVAL_SYM"
     xlink:title="INTERVAL_SYM"
     id="a284">
    <rect
       x="269"
       y="487"
       width="110"
       height="32"
       id="rect278" />
    <rect
       x="267"
       y="485"
       width="110"
       height="32"
       class="nonterminal"
       id="rect280" />
    <text
       class="nonterminal"
       x="277"
       y="505"
       id="text282">INTERVAL_SYM</text>
  </a>
  <a
     xlink:href="#expr"
     xlink:title="expr"
     id="a292">
    <rect
       x="399"
       y="487"
       width="46"
       height="32"
       id="rect286" />
    <rect
       x="397"
       y="485"
       width="46"
       height="32"
       class="nonterminal"
       id="rect288" />
    <text
       class="nonterminal"
       x="407"
       y="505"
       id="text290">expr</text>
  </a>
  <a
     xlink:href="#interval"
     xlink:title="interval"
     id="a300">
    <rect
       x="465"
       y="487"
       width="62"
       height="32"
       id="rect294" />
    <rect
       x="463"
       y="485"
       width="62"
       height="32"
       class="nonterminal"
       id="rect296" />
    <text
       class="nonterminal"
       x="473"
       y="505"
       id="text298">interval</text>
  </a>
  <a
     xlink:href="#simple_expr"
     xlink:title="simple_expr"
     id="a308">
    <rect
       x="51"
       y="531"
       width="92"
       height="32"
       id="rect302" />
    <rect
       x="49"
       y="529"
       width="92"
       height="32"
       class="nonterminal"
       id="rect304" />
    <text
       class="nonterminal"
       x="59"
       y="549"
       id="text306">simple_expr</text>
  </a>
  <path
     class="line"
     d="m17 17 h2 m20 0 h10 m68 0 h10 m40 0 h10 m26 0 h10 m0 0 h72 m-138 0 h20 m118 0 h20 m-158 0 q10 0 10 10 m138 0 q0 -10 10 -10 m-148 10 v24 m138 0 v-24 m-138 24 q0 10 10 10 m118 0 q10 0 10 -10 m-128 10 h10 m30 0 h10 m0 0 h68 m-128 -10 v20 m138 0 v-20 m-138 20 v24 m138 0 v-24 m-138 24 q0 10 10 10 m118 0 q10 0 10 -10 m-128 10 h10 m90 0 h10 m0 0 h8 m-128 -10 v20 m138 0 v-20 m-138 20 v24 m138 0 v-24 m-138 24 q0 10 10 10 m118 0 q10 0 10 -10 m-128 10 h10 m98 0 h10 m-128 -10 v20 m138 0 v-20 m-138 20 v24 m138 0 v-24 m-138 24 q0 10 10 10 m118 0 q10 0 10 -10 m-128 10 h10 m28 0 h10 m0 0 h70 m-128 -10 v20 m138 0 v-20 m-138 20 v24 m138 0 v-24 m-138 24 q0 10 10 10 m118 0 q10 0 10 -10 m-128 10 h10 m28 0 h10 m0 0 h70 m-128 -10 v20 m138 0 v-20 m-138 20 v24 m138 0 v-24 m-138 24 q0 10 10 10 m118 0 q10 0 10 -10 m-128 10 h10 m34 0 h10 m0 0 h64 m-128 -10 v20 m138 0 v-20 m-138 20 v24 m138 0 v-24 m-138 24 q0 10 10 10 m118 0 q10 0 10 -10 m-128 10 h10 m74 0 h10 m0 0 h24 m-128 -10 v20 m138 0 v-20 m-138 20 v24 m138 0 v-24 m-138 24 q0 10 10 10 m118 0 q10 0 10 -10 m-128 10 h10 m82 0 h10 m0 0 h16 m-128 -10 v20 m138 0 v-20 m-138 20 v24 m138 0 v-24 m-138 24 q0 10 10 10 m118 0 q10 0 10 -10 m-128 10 h10 m30 0 h10 m0 0 h68 m20 -396 h10 m68 0 h10 m0 0 h162 m-428 0 h20 m408 0 h20 m-448 0 q10 0 10 10 m428 0 q0 -10 10 -10 m-438 10 v420 m428 0 v-420 m-428 420 q0 10 10 10 m408 0 q10 0 10 -10 m-398 10 h10 m30 0 h10 m-70 0 h20 m50 0 h20 m-90 0 q10 0 10 10 m70 0 q0 -10 10 -10 m-80 10 v24 m70 0 v-24 m-70 24 q0 10 10 10 m50 0 q10 0 10 -10 m-60 10 h10 m26 0 h10 m0 0 h4 m40 -44 h10 m68 0 h10 m0 0 h190 m-298 0 h20 m278 0 h20 m-318 0 q10 0 10 10 m298 0 q0 -10 10 -10 m-308 10 v24 m298 0 v-24 m-298 24 q0 10 10 10 m278 0 q10 0 10 -10 m-288 10 h10 m110 0 h10 m0 0 h10 m46 0 h10 m0 0 h10 m62 0 h10 m-516 -484 h20 m536 0 h20 m-576 0 q10 0 10 10 m556 0 q0 -10 10 -10 m-566 10 v508 m556 0 v-508 m-556 508 q0 10 10 10 m536 0 q10 0 10 -10 m-546 10 h10 m92 0 h10 m0 0 h424 m23 -528 h-3"
     id="path310" />
  <polygon
     points="605 17 613 13 613 21"
     id="polygon312" />
  <polygon
     points="605 17 597 13 597 21"
     id="polygon314" />
</svg>
