<?xml version="1.0" encoding="UTF-8" standalone="no"?>
<svg
   xmlns:dc="http://purl.org/dc/elements/1.1/"
   xmlns:cc="http://creativecommons.org/ns#"
   xmlns:rdf="http://www.w3.org/1999/02/22-rdf-syntax-ns#"
   xmlns:svg="http://www.w3.org/2000/svg"
   xmlns="http://www.w3.org/2000/svg"
   xmlns:xlink="http://www.w3.org/1999/xlink"
   xmlns:sodipodi="http://sodipodi.sourceforge.net/DTD/sodipodi-0.dtd"
   xmlns:inkscape="http://www.inkscape.org/namespaces/inkscape"
   width="676"
   height="188"
   version="1.1"
   id="svg6193"
   sodipodi:docname="bool_pri.svg"
   inkscape:version="0.92.3 (2405546, 2018-03-11)">
  <metadata
     id="metadata6197">
    <rdf:RDF>
      <cc:Work
         rdf:about="">
        <dc:format>image/svg+xml</dc:format>
        <dc:type
           rdf:resource="http://purl.org/dc/dcmitype/StillImage" />
      </cc:Work>
    </rdf:RDF>
  </metadata>
  <sodipodi:namedview
     pagecolor="#ffffff"
     bordercolor="#666666"
     borderopacity="1"
     objecttolerance="10"
     gridtolerance="10"
     guidetolerance="10"
     inkscape:pageopacity="0"
     inkscape:pageshadow="2"
     inkscape:window-width="1576"
     inkscape:window-height="746"
     id="namedview6195"
     showgrid="false"
     inkscape:zoom="0.89053254"
     inkscape:cx="375.25193"
     inkscape:cy="144.54547"
     inkscape:window-x="0"
     inkscape:window-y="0"
     inkscape:window-maximized="1"
     inkscape:current-layer="svg6193" />
  <defs
     id="defs6105">
    <style
       type="text/css"
       id="style6103">
               @namespace &quot;http://www.w3.org/2000/svg&quot;;
               .line                 {fill: none; stroke: #0D2026;}
               .bold-line            {stroke: #050D0F; shape-rendering: crispEdges; stroke-width:
               2; }
               .thin-line            {stroke: #081317; shape-rendering: crispEdges}
               .filled               {fill: #0D2026; stroke: none;}
               text.terminal         {font-family: Verdana, Sans-serif;
               font-size: 12px;
               fill: #050D0F;
               font-weight: bold;
               }
               text.nonterminal      {font-family: Verdana, Sans-serif;
               font-size: 12px;
               fill: #061013;
               }
               text.regexp           {font-family: Verdana, Sans-serif;
               font-size: 12px;
               fill: #081317;
               }
               rect, circle, polygon {fill: #0D2026; stroke: #0D2026;}
               rect.terminal         {fill: #66B3CC; stroke: #0D2026;}
               rect.nonterminal      {fill: #9ECFDF; stroke: #0D2026;}
               rect.text             {fill: none; stroke: none;}
               polygon.regexp        {fill: #BBDDE8; stroke: #0D2026;}

            </style>
  </defs>
  <polygon
     points="9 33 1 29 1 37"
     id="polygon6107" />
  <polygon
     points="17 33 9 29 9 37"
     id="polygon6109" />
  <a
     xlink:href="#predicate"
     xlink:title="predicate"
     id="a6117">
    <rect
       x="31"
       y="19"
       width="74"
       height="32"
       id="rect6111" />
    <rect
       x="29"
       y="17"
       width="74"
       height="32"
       class="nonterminal"
       id="rect6113"
       style="fill:#00ff00" />
  </a>
  <a
     xlink:href="#IS"
     xlink:title="IS"
     id="a6125">
    <rect
       x="185"
       y="19"
       width="32"
       height="32"
       id="rect6119" />
    <rect
       x="183"
       y="17"
       width="32"
       height="32"
       class="nonterminal"
       id="rect6121"
       style="fill:#00ff00" />
    <text
       class="nonterminal"
       x="193"
       y="37"
       id="text6123">IS</text>
  </a>
  <a
     xlink:href="#not"
     xlink:title="not"
     id="a6133">
    <rect
       x="257"
       y="51"
       width="40"
       height="32"
       id="rect6127" />
    <rect
       x="255"
       y="49"
       width="40"
       height="32"
       class="nonterminal"
       id="rect6129"
       style="fill:#00ff00" />
    <text
       class="nonterminal"
       x="265"
       y="69"
       id="text6131">not</text>
  </a>
  <a
     xlink:href="#NULL_SYM"
     xlink:title="NULL_SYM"
     id="a6141">
    <rect
       x="337"
       y="19"
       width="84"
       height="32"
       id="rect6135" />
    <rect
       x="335"
       y="17"
       width="84"
       height="32"
       class="nonterminal"
       id="rect6137"
       style="fill:#00ff00" />
    <text
       class="nonterminal"
       x="345"
       y="37"
       id="text6139">NULL_SYM</text>
  </a>
  <a
     xlink:href="#comp_op"
     xlink:title="comp_op"
     id="a6149">
    <rect
       x="185"
       y="95"
       width="76"
       height="32"
       id="rect6143" />
    <rect
       x="183"
       y="93"
       width="76"
       height="32"
       class="nonterminal"
       id="rect6145"
       style="fill:#00ff00" />
    <text
       class="nonterminal"
       x="193"
       y="113"
       id="text6147">comp_op</text>
  </a>
  <a
     xlink:href="#predicate"
     xlink:title="predicate"
     id="a6157">
    <rect
       x="301"
       y="95"
       width="74"
       height="32"
       id="rect6151" />
    <rect
       x="299"
       y="93"
       width="74"
       height="32"
       class="nonterminal"
       id="rect6153"
       style="fill:#ffff00" />
    <text
       class="nonterminal"
       x="309"
       y="113"
       id="text6155">predicate</text>
  </a>
  <a
     xlink:href="#all_or_any"
     xlink:title="all_or_any"
     id="a6165">
    <rect
       x="301"
       y="139"
       width="82"
       height="32"
       id="rect6159" />
    <rect
       x="299"
       y="137"
       width="82"
       height="32"
       class="nonterminal"
       id="rect6161"
       style="fill:#00ff00" />
    <text
       class="nonterminal"
       x="309"
       y="157"
       id="text6163">all_or_any</text>
  </a>
  <rect
     x="403"
     y="139"
     width="26"
     height="32"
     rx="10"
     id="rect6167" />
  <rect
     x="401"
     y="137"
     width="26"
     height="32"
     class="terminal"
     rx="10"
     id="rect6169"
     style="fill:#00ff00" />
  <text
     class="terminal"
     x="411"
     y="157"
     id="text6171">(</text>
  <a
     xlink:href="#subselect"
     xlink:title="subselect"
     id="a6179">
    <rect
       x="449"
       y="139"
       width="74"
       height="32"
       id="rect6173" />
    <rect
       x="447"
       y="137"
       width="74"
       height="32"
       class="nonterminal"
       id="rect6175"
       style="fill:#ff0000" />
    <text
       class="nonterminal"
       x="457"
       y="157"
       id="text6177">subselect</text>
  </a>
  <rect
     x="543"
     y="139"
     width="26"
     height="32"
     rx="10"
     id="rect6181" />
  <rect
     x="541"
     y="137"
     width="26"
     height="32"
     class="terminal"
     rx="10"
     id="rect6183"
     style="fill:#00ff00" />
  <text
     class="terminal"
     x="551"
     y="157"
     id="text6185">)</text>
  <path
     class="line"
     d="m17 33 h2 m0 0 h10 m74 0 h10 m60 0 h10 m32 0 h10 m20 0 h10 m0 0 h50 m-80 0 h20 m60 0 h20 m-100 0 q10 0 10 10 m80 0 q0 -10 10 -10 m-90 10 v12 m80 0 v-12 m-80 12 q0 10 10 10 m60 0 q10 0 10 -10 m-70 10 h10 m40 0 h10 m20 -32 h10 m84 0 h10 m0 0 h168 m-444 0 h20 m424 0 h20 m-464 0 q10 0 10 10 m444 0 q0 -10 10 -10 m-454 10 v56 m444 0 v-56 m-444 56 q0 10 10 10 m424 0 q10 0 10 -10 m-434 10 h10 m76 0 h10 m20 0 h10 m74 0 h10 m0 0 h194 m-308 0 h20 m288 0 h20 m-328 0 q10 0 10 10 m308 0 q0 -10 10 -10 m-318 10 v24 m308 0 v-24 m-308 24 q0 10 10 10 m288 0 q10 0 10 -10 m-298 10 h10 m82 0 h10 m0 0 h10 m26 0 h10 m0 0 h10 m74 0 h10 m0 0 h10 m26 0 h10 m-444 -120 l20 0 m-1 0 q-9 0 -9 -10 l0 -12 q0 -10 10 -10 m464 32 l20 0 m-20 0 q10 0 10 -10 l0 -12 q0 -10 -10 -10 m-464 0 h10 m0 0 h454 m-504 32 h20 m504 0 h20 m-544 0 q10 0 10 10 m524 0 q0 -10 10 -10 m-534 10 v134 m524 0 v-134 m-524 134 q0 10 10 10 m504 0 q10 0 10 -10 m-514 10 h10 m0 0 h494 m23 -154 h-3"
     id="path6187" />
  <polygon
     points="667 33 675 29 675 37"
     id="polygon6189" />
  <polygon
     points="667 33 659 29 659 37"
     id="polygon6191" />
</svg>
