<?xml version="1.0" encoding="UTF-8" standalone="no"?>
<svg
   xmlns:dc="http://purl.org/dc/elements/1.1/"
   xmlns:cc="http://creativecommons.org/ns#"
   xmlns:rdf="http://www.w3.org/1999/02/22-rdf-syntax-ns#"
   xmlns:svg="http://www.w3.org/2000/svg"
   xmlns="http://www.w3.org/2000/svg"
   xmlns:xlink="http://www.w3.org/1999/xlink"
   xmlns:sodipodi="http://sodipodi.sourceforge.net/DTD/sodipodi-0.dtd"
   xmlns:inkscape="http://www.inkscape.org/namespaces/inkscape"
   width="536"
   height="332"
   version="1.1"
   id="svg6689"
   sodipodi:docname="expr.svg"
   inkscape:version="0.92.3 (2405546, 2018-03-11)">
  <metadata
     id="metadata6693">
    <rdf:RDF>
      <cc:Work
         rdf:about="">
        <dc:format>image/svg+xml</dc:format>
        <dc:type
           rdf:resource="http://purl.org/dc/dcmitype/StillImage" />
      </cc:Work>
    </rdf:RDF>
  </metadata>
  <sodipodi:namedview
     pagecolor="#ffffff"
     bordercolor="#666666"
     borderopacity="1"
     objecttolerance="10"
     gridtolerance="10"
     guidetolerance="10"
     inkscape:pageopacity="0"
     inkscape:pageshadow="2"
     inkscape:window-width="1379"
     inkscape:window-height="735"
     id="namedview6691"
     showgrid="false"
     inkscape:zoom="1.5883518"
     inkscape:cx="357.88135"
     inkscape:cy="174.10377"
     inkscape:window-x="89"
     inkscape:window-y="55"
     inkscape:window-maximized="0"
     inkscape:current-layer="svg6689" />
  <defs
     id="defs6581">
    <style
       type="text/css"
       id="style6579">
               @namespace &quot;http://www.w3.org/2000/svg&quot;;
               .line                 {fill: none; stroke: #0D2026;}
               .bold-line            {stroke: #050D0F; shape-rendering: crispEdges; stroke-width:
               2; }
               .thin-line            {stroke: #081317; shape-rendering: crispEdges}
               .filled               {fill: #0D2026; stroke: none;}
               text.terminal         {font-family: Verdana, Sans-serif;
               font-size: 12px;
               fill: #050D0F;
               font-weight: bold;
               }
               text.nonterminal      {font-family: Verdana, Sans-serif;
               font-size: 12px;
               fill: #061013;
               }
               text.regexp           {font-family: Verdana, Sans-serif;
               font-size: 12px;
               fill: #081317;
               }
               rect, circle, polygon {fill: #0D2026; stroke: #0D2026;}
               rect.terminal         {fill: #66B3CC; stroke: #0D2026;}
               rect.nonterminal      {fill: #9ECFDF; stroke: #0D2026;}
               rect.text             {fill: none; stroke: none;}
               polygon.regexp        {fill: #BBDDE8; stroke: #0D2026;}

            </style>
  </defs>
  <polygon
     points="9 17 1 13 1 21"
     id="polygon6583" />
  <polygon
     points="17 17 9 13 9 21"
     id="polygon6585" />
  <a
     xlink:href="#expr"
     xlink:title="expr"
     id="a6593">
    <rect
       x="71"
       y="3"
       width="46"
       height="32"
       id="rect6587" />
    <rect
       x="69"
       y="1"
       width="46"
       height="32"
       class="nonterminal"
       id="rect6589"
       style="fill:#ff0000" />
    <text
       class="nonterminal"
       x="79"
       y="21"
       id="text6591">expr</text>
  </a>
  <a
     xlink:href="#or"
     xlink:title="or"
     id="a6601">
    <rect
       x="157"
       y="3"
       width="32"
       height="32"
       id="rect6595" />
    <rect
       x="155"
       y="1"
       width="32"
       height="32"
       class="nonterminal"
       id="rect6597"
       style="fill:#00ff00" />
    <text
       class="nonterminal"
       x="165"
       y="21"
       id="text6599">or</text>
  </a>
  <a
     xlink:href="#XOR"
     xlink:title="XOR"
     id="a6609">
    <rect
       x="157"
       y="47"
       width="46"
       height="32"
       id="rect6603" />
    <rect
       x="155"
       y="45"
       width="46"
       height="32"
       class="nonterminal"
       id="rect6605"
       style="fill:#00ff00" />
    <text
       class="nonterminal"
       x="165"
       y="65"
       id="text6607">XOR</text>
  </a>
  <a
     xlink:href="#and"
     xlink:title="and"
     id="a6617">
    <rect
       x="157"
       y="91"
       width="42"
       height="32"
       id="rect6611" />
    <rect
       x="155"
       y="89"
       width="42"
       height="32"
       class="nonterminal"
       id="rect6613"
       style="fill:#00ff00" />
    <text
       class="nonterminal"
       x="165"
       y="109"
       id="text6615">and</text>
  </a>
  <a
     xlink:href="#NOT_SYM"
     xlink:title="NOT_SYM"
     id="a6625">
    <rect
       x="71"
       y="135"
       width="78"
       height="32"
       id="rect6619" />
    <rect
       x="69"
       y="133"
       width="78"
       height="32"
       class="nonterminal"
       id="rect6621"
       style="fill:#00ff00" />
    <text
       class="nonterminal"
       x="79"
       y="153"
       id="text6623">NOT_SYM</text>
  </a>
  <a
     xlink:href="#expr"
     xlink:title="expr"
     id="a6633">
    <rect
       x="263"
       y="3"
       width="46"
       height="32"
       id="rect6627" />
    <rect
       x="261"
       y="1"
       width="46"
       height="32"
       class="nonterminal"
       id="rect6629"
       style="fill:#ff0000" />
    <text
       class="nonterminal"
       x="271"
       y="21"
       id="text6631">expr</text>
  </a>
  <a
     xlink:href="#bool_pri"
     xlink:title="bool_pri"
     id="a6641">
    <rect
       x="51"
       y="179"
       width="68"
       height="32"
       id="rect6635" />
    <rect
       x="49"
       y="177"
       width="68"
       height="32"
       class="nonterminal"
       id="rect6637" />
    <text
       class="nonterminal"
       x="59"
       y="197"
       id="text6639">bool_pri</text>
  </a>
  <a
     xlink:href="#IS"
     xlink:title="IS"
     id="a6649">
    <rect
       x="159"
       y="211"
       width="32"
       height="32"
       id="rect6643" />
    <rect
       x="157"
       y="209"
       width="32"
       height="32"
       class="nonterminal"
       id="rect6645"
       style="fill:#00ff00" />
    <text
       class="nonterminal"
       x="167"
       y="229"
       id="text6647">IS</text>
  </a>
  <a
     xlink:href="#not"
     xlink:title="not"
     id="a6657">
    <rect
       x="231"
       y="243"
       width="40"
       height="32"
       id="rect6651" />
    <rect
       x="229"
       y="241"
       width="40"
       height="32"
       class="nonterminal"
       id="rect6653"
       style="fill:#00ff00" />
    <text
       class="nonterminal"
       x="239"
       y="261"
       id="text6655">not</text>
  </a>
  <a
     xlink:href="#TRUE_SYM"
     xlink:title="TRUE_SYM"
     id="a6665">
    <rect
       x="331"
       y="211"
       width="84"
       height="32"
       id="rect6659" />
    <rect
       x="329"
       y="209"
       width="84"
       height="32"
       class="nonterminal"
       id="rect6661"
       style="fill:#00ff00" />
    <text
       class="nonterminal"
       x="339"
       y="229"
       id="text6663">TRUE_SYM</text>
  </a>
  <a
     xlink:href="#FALSE_SYM"
     xlink:title="FALSE_SYM"
     id="a6673">
    <rect
       x="331"
       y="255"
       width="90"
       height="32"
       id="rect6667" />
    <rect
       x="329"
       y="253"
       width="90"
       height="32"
       class="nonterminal"
       id="rect6669"
       style="fill:#00ff00" />
    <text
       class="nonterminal"
       x="339"
       y="273"
       id="text6671">FALSE_SYM</text>
  </a>
  <a
     xlink:href="#UNKNOWN_SYM"
     xlink:title="UNKNOWN_SYM"
     id="a6681">
    <rect
       x="331"
       y="299"
       width="118"
       height="32"
       id="rect6675" />
    <rect
       x="329"
       y="297"
       width="118"
       height="32"
       class="nonterminal"
       id="rect6677"
       style="fill:#00ff00" />
    <text
       class="nonterminal"
       x="339"
       y="317"
       id="text6679">UNKNOWN_SYM</text>
  </a>
  <path
     class="line"
     d="m17 17 h2 m40 0 h10 m46 0 h10 m20 0 h10 m32 0 h10 m0 0 h14 m-86 0 h20 m66 0 h20 m-106 0 q10 0 10 10 m86 0 q0 -10 10 -10 m-96 10 v24 m86 0 v-24 m-86 24 q0 10 10 10 m66 0 q10 0 10 -10 m-76 10 h10 m46 0 h10 m-76 -10 v20 m86 0 v-20 m-86 20 v24 m86 0 v-24 m-86 24 q0 10 10 10 m66 0 q10 0 10 -10 m-76 10 h10 m42 0 h10 m0 0 h4 m-172 -88 h20 m172 0 h20 m-212 0 q10 0 10 10 m192 0 q0 -10 10 -10 m-202 10 v112 m192 0 v-112 m-192 112 q0 10 10 10 m172 0 q10 0 10 -10 m-182 10 h10 m78 0 h10 m0 0 h74 m20 -132 h10 m46 0 h10 m0 0 h180 m-478 0 h20 m458 0 h20 m-498 0 q10 0 10 10 m478 0 q0 -10 10 -10 m-488 10 v156 m478 0 v-156 m-478 156 q0 10 10 10 m458 0 q10 0 10 -10 m-468 10 h10 m68 0 h10 m20 0 h10 m0 0 h320 m-350 0 h20 m330 0 h20 m-370 0 q10 0 10 10 m350 0 q0 -10 10 -10 m-360 10 v12 m350 0 v-12 m-350 12 q0 10 10 10 m330 0 q10 0 10 -10 m-340 10 h10 m32 0 h10 m20 0 h10 m0 0 h50 m-80 0 h20 m60 0 h20 m-100 0 q10 0 10 10 m80 0 q0 -10 10 -10 m-90 10 v12 m80 0 v-12 m-80 12 q0 10 10 10 m60 0 q10 0 10 -10 m-70 10 h10 m40 0 h10 m40 -32 h10 m84 0 h10 m0 0 h34 m-158 0 h20 m138 0 h20 m-178 0 q10 0 10 10 m158 0 q0 -10 10 -10 m-168 10 v24 m158 0 v-24 m-158 24 q0 10 10 10 m138 0 q10 0 10 -10 m-148 10 h10 m90 0 h10 m0 0 h28 m-148 -10 v20 m158 0 v-20 m-158 20 v24 m158 0 v-24 m-158 24 q0 10 10 10 m138 0 q10 0 10 -10 m-148 10 h10 m118 0 h10 m63 -296 h-3"
     id="path6683" />
  <polygon
     points="527 17 535 13 535 21"
     id="polygon6685" />
  <polygon
     points="527 17 519 13 519 21"
     id="polygon6687" />
</svg>
