<svg xmlns="http://www.w3.org/2000/svg" width="528" height="80">
         <defs>
            <style type="text/css">
               @namespace "http://www.w3.org/2000/svg";
               .line                 {fill: none; stroke: #0D2026;}
               .bold-line            {stroke: #050D0F; shape-rendering: crispEdges; stroke-width:
               2; }
               .thin-line            {stroke: #081317; shape-rendering: crispEdges}
               .filled               {fill: #0D2026; stroke: none;}
               text.terminal         {font-family: Verdana, Sans-serif;
               font-size: 12px;
               fill: #050D0F;
               font-weight: bold;
               }
               text.nonterminal      {font-family: Verdana, Sans-serif;
               font-size: 12px;
               fill: #061013;
               }
               text.regexp           {font-family: Verdana, Sans-serif;
               font-size: 12px;
               fill: #081317;
               }
               rect, circle, polygon {fill: #0D2026; stroke: #0D2026;}
               rect.terminal         {fill: #66B3CC; stroke: #0D2026;}
               rect.nonterminal      {fill: #9ECFDF; stroke: #0D2026;}
               rect.text             {fill: none; stroke: none;}
               polygon.regexp        {fill: #BBDDE8; stroke: #0D2026;}

            </style>
         </defs>
         <polygon points="9 17 1 13 1 21"/>
         <polygon points="17 17 9 13 9 21"/>
         <a xmlns:xlink="http://www.w3.org/1999/xlink" xlink:href="#SELECT_SYM" xlink:title="SELECT_SYM">
            <rect x="51" y="3" width="98" height="32"/>
            <rect x="49" y="1" width="98" height="32" class="nonterminal"/>
            <text class="nonterminal" x="59" y="21">SELECT_SYM</text>
         </a>
         <a xmlns:xlink="http://www.w3.org/1999/xlink" xlink:href="#select_part2_derived" xlink:title="select_part2_derived">
            <rect x="169" y="3" width="146" height="32"/>
            <rect x="167" y="1" width="146" height="32" class="nonterminal"/>
            <text class="nonterminal" x="177" y="21">select_part2_derived</text>
         </a>
         <a xmlns:xlink="http://www.w3.org/1999/xlink" xlink:href="#table_expression" xlink:title="table_expression">
            <rect x="335" y="3" width="120" height="32"/>
            <rect x="333" y="1" width="120" height="32" class="nonterminal"/>
            <text class="nonterminal" x="343" y="21">table_expression</text>
         </a>
         <rect x="51" y="47" width="26" height="32" rx="10"/>
         <rect x="49" y="45" width="26" height="32" class="terminal" rx="10"/>
         <text class="terminal" x="59" y="65">(</text>
         <a xmlns:xlink="http://www.w3.org/1999/xlink" xlink:href="#select_paren_derived" xlink:title="select_paren_derived">
            <rect x="97" y="47" width="146" height="32"/>
            <rect x="95" y="45" width="146" height="32" class="nonterminal"/>
            <text class="nonterminal" x="105" y="65">select_paren_derived</text>
         </a>
         <rect x="263" y="47" width="26" height="32" rx="10"/>
         <rect x="261" y="45" width="26" height="32" class="terminal" rx="10"/>
         <text class="terminal" x="271" y="65">)</text>
         <a xmlns:xlink="http://www.w3.org/1999/xlink" xlink:href="#opt_union_order_or_limit" xlink:title="opt_union_order_or_limit">
            <rect x="309" y="47" width="172" height="32"/>
            <rect x="307" y="45" width="172" height="32" class="nonterminal"/>
            <text class="nonterminal" x="317" y="65">opt_union_order_or_limit</text>
         </a>
         <path xmlns:svg="http://www.w3.org/2000/svg" class="line" d="m17 17 h2 m20 0 h10 m98 0 h10 m0 0 h10 m146 0 h10 m0 0 h10 m120 0 h10 m0 0 h26 m-470 0 h20 m450 0 h20 m-490 0 q10 0 10 10 m470 0 q0 -10 10 -10 m-480 10 v24 m470 0 v-24 m-470 24 q0 10 10 10 m450 0 q10 0 10 -10 m-460 10 h10 m26 0 h10 m0 0 h10 m146 0 h10 m0 0 h10 m26 0 h10 m0 0 h10 m172 0 h10 m23 -44 h-3"/>
         <polygon points="519 17 527 13 527 21"/>
         <polygon points="519 17 511 13 511 21"/>
      </svg>
