<?xml version="1.0" encoding="UTF-8" standalone="no"?>
<svg
   xmlns:dc="http://purl.org/dc/elements/1.1/"
   xmlns:cc="http://creativecommons.org/ns#"
   xmlns:rdf="http://www.w3.org/1999/02/22-rdf-syntax-ns#"
   xmlns:svg="http://www.w3.org/2000/svg"
   xmlns="http://www.w3.org/2000/svg"
   xmlns:xlink="http://www.w3.org/1999/xlink"
   xmlns:sodipodi="http://sodipodi.sourceforge.net/DTD/sodipodi-0.dtd"
   xmlns:inkscape="http://www.inkscape.org/namespaces/inkscape"
   width="876"
   height="652"
   version="1.1"
   id="svg1956"
   sodipodi:docname="sum_expr.svg"
   inkscape:version="0.92.3 (2405546, 2018-03-11)">
  <metadata
     id="metadata1960">
    <rdf:RDF>
      <cc:Work
         rdf:about="">
        <dc:format>image/svg+xml</dc:format>
        <dc:type
           rdf:resource="http://purl.org/dc/dcmitype/StillImage" />
      </cc:Work>
    </rdf:RDF>
  </metadata>
  <sodipodi:namedview
     pagecolor="#ffffff"
     bordercolor="#666666"
     borderopacity="1"
     objecttolerance="10"
     gridtolerance="10"
     guidetolerance="10"
     inkscape:pageopacity="0"
     inkscape:pageshadow="2"
     inkscape:window-width="1559"
     inkscape:window-height="670"
     id="namedview1958"
     showgrid="false"
     inkscape:zoom="0.97186821"
     inkscape:cx="638.91256"
     inkscape:cy="214.09549"
     inkscape:window-x="9"
     inkscape:window-y="72"
     inkscape:window-maximized="0"
     inkscape:current-layer="svg1956"
     showguides="false" />
  <defs
     id="defs1724">
    <style
       type="text/css"
       id="style1722">
               @namespace &quot;http://www.w3.org/2000/svg&quot;;
               .line                 {fill: none; stroke: #0D2026;}
               .bold-line            {stroke: #050D0F; shape-rendering: crispEdges; stroke-width:
               2; }
               .thin-line            {stroke: #081317; shape-rendering: crispEdges}
               .filled               {fill: #0D2026; stroke: none;}
               text.terminal         {font-family: Verdana, Sans-serif;
               font-size: 12px;
               fill: #050D0F;
               font-weight: bold;
               }
               text.nonterminal      {font-family: Verdana, Sans-serif;
               font-size: 12px;
               fill: #061013;
               }
               text.regexp           {font-family: Verdana, Sans-serif;
               font-size: 12px;
               fill: #081317;
               }
               rect, circle, polygon {fill: #0D2026; stroke: #0D2026;}
               rect.terminal         {fill: #66B3CC; stroke: #0D2026;}
               rect.nonterminal      {fill: #9ECFDF; stroke: #0D2026;}
               rect.text             {fill: none; stroke: none;}
               polygon.regexp        {fill: #BBDDE8; stroke: #0D2026;}

            </style>
  </defs>
  <polygon
     points="9 17 1 13 1 21"
     id="polygon1726" />
  <polygon
     points="17 17 9 13 9 21"
     id="polygon1728" />
  <a
     xlink:href="#AVG_SYM"
     xlink:title="AVG_SYM"
     id="a1736">
    <rect
       x="91"
       y="3"
       width="78"
       height="32"
       id="rect1730" />
    <rect
       x="89"
       y="1"
       width="78"
       height="32"
       class="nonterminal"
       id="rect1732"
       style="fill:#00ff00" />
    <text
       class="nonterminal"
       x="99"
       y="21"
       id="text1734">AVG_SYM</text>
  </a>
  <a
     xlink:href="#MIN_SYM"
     xlink:title="MIN_SYM"
     id="a1744">
    <rect
       x="91"
       y="47"
       width="76"
       height="32"
       id="rect1738" />
    <rect
       x="89"
       y="45"
       width="76"
       height="32"
       class="nonterminal"
       id="rect1740"
       style="fill:#00ff00" />
    <text
       class="nonterminal"
       x="99"
       y="65"
       id="text1742">MIN_SYM</text>
  </a>
  <a
     xlink:href="#MAX_SYM"
     xlink:title="MAX_SYM"
     id="a1752">
    <rect
       x="91"
       y="91"
       width="80"
       height="32"
       id="rect1746" />
    <rect
       x="89"
       y="89"
       width="80"
       height="32"
       class="nonterminal"
       id="rect1748"
       style="fill:#00ff00" />
    <text
       class="nonterminal"
       x="99"
       y="109"
       id="text1750">MAX_SYM</text>
  </a>
  <a
     xlink:href="#SUM_SYM"
     xlink:title="SUM_SYM"
     id="a1760">
    <rect
       x="91"
       y="135"
       width="80"
       height="32"
       id="rect1754" />
    <rect
       x="89"
       y="133"
       width="80"
       height="32"
       class="nonterminal"
       id="rect1756"
       style="fill:#00ff00" />
    <text
       class="nonterminal"
       x="99"
       y="153"
       id="text1758">SUM_SYM</text>
  </a>
  <rect
     x="211"
     y="3"
     width="26"
     height="32"
     rx="10"
     id="rect1762" />
  <rect
     x="209"
     y="1"
     width="26"
     height="32"
     class="terminal"
     rx="10"
     id="rect1764"
     style="fill:#00ff00" />
  <text
     class="terminal"
     x="219"
     y="21"
     id="text1766">(</text>
  <a
     xlink:href="#DISTINCT"
     xlink:title="DISTINCT"
     id="a1774">
    <rect
       x="277"
       y="35"
       width="74"
       height="32"
       id="rect1768" />
    <rect
       x="275"
       y="33"
       width="74"
       height="32"
       class="nonterminal"
       id="rect1770"
       style="fill:#00ff00" />
    <text
       class="nonterminal"
       x="285"
       y="53"
       id="text1772">DISTINCT</text>
  </a>
  <a
     xlink:href="#BIT_AND"
     xlink:title="BIT_AND"
     id="a1782">
    <rect
       x="91"
       y="179"
       width="72"
       height="32"
       id="rect1776" />
    <rect
       x="89"
       y="177"
       width="72"
       height="32"
       class="nonterminal"
       id="rect1778"
       style="fill:#00ff00" />
    <text
       class="nonterminal"
       x="99"
       y="197"
       id="text1780">BIT_AND</text>
  </a>
  <a
     xlink:href="#BIT_OR"
     xlink:title="BIT_OR"
     id="a1790">
    <rect
       x="91"
       y="223"
       width="64"
       height="32"
       id="rect1784" />
    <rect
       x="89"
       y="221"
       width="64"
       height="32"
       class="nonterminal"
       id="rect1786"
       style="fill:#00ff00" />
    <text
       class="nonterminal"
       x="99"
       y="241"
       id="text1788">BIT_OR</text>
  </a>
  <a
     xlink:href="#BIT_XOR"
     xlink:title="BIT_XOR"
     id="a1798">
    <rect
       x="91"
       y="267"
       width="72"
       height="32"
       id="rect1792" />
    <rect
       x="89"
       y="265"
       width="72"
       height="32"
       class="nonterminal"
       id="rect1794"
       style="fill:#00ff00" />
    <text
       class="nonterminal"
       x="99"
       y="285"
       id="text1796">BIT_XOR</text>
  </a>
  <a
     xlink:href="#STD_SYM"
     xlink:title="STD_SYM"
     id="a1806">
    <rect
       x="91"
       y="311"
       width="76"
       height="32"
       id="rect1800" />
    <rect
       x="89"
       y="309"
       width="76"
       height="32"
       class="nonterminal"
       id="rect1802"
       style="fill:#00ff00" />
    <text
       class="nonterminal"
       x="99"
       y="329"
       id="text1804">STD_SYM</text>
  </a>
  <a
     xlink:href="#VARIANCE_SYM"
     xlink:title="VARIANCE_SYM"
     id="a1814">
    <rect
       x="91"
       y="355"
       width="114"
       height="32"
       id="rect1808" />
    <rect
       x="89"
       y="353"
       width="114"
       height="32"
       class="nonterminal"
       id="rect1810"
       style="fill:#00ff00" />
    <text
       class="nonterminal"
       x="99"
       y="373"
       id="text1812">VARIANCE_SYM</text>
  </a>
  <a
     xlink:href="#STDDEV_SAMP_SYM"
     xlink:title="STDDEV_SAMP_SYM"
     id="a1822">
    <rect
       x="91"
       y="399"
       width="142"
       height="32"
       id="rect1816" />
    <rect
       x="89"
       y="397"
       width="142"
       height="32"
       class="nonterminal"
       id="rect1818"
       style="fill:#00ff00" />
    <text
       class="nonterminal"
       x="99"
       y="417"
       id="text1820">STDDEV_SAMP_SYM</text>
  </a>
  <a
     xlink:href="#VAR_SAMP_SYM"
     xlink:title="VAR_SAMP_SYM"
     id="a1830">
    <rect
       x="91"
       y="443"
       width="118"
       height="32"
       id="rect1824" />
    <rect
       x="89"
       y="441"
       width="118"
       height="32"
       class="nonterminal"
       id="rect1826"
       style="fill:#00ff00" />
    <text
       class="nonterminal"
       x="99"
       y="461"
       id="text1828">VAR_SAMP_SYM</text>
  </a>
  <rect
     x="273"
     y="179"
     width="26"
     height="32"
     rx="10"
     id="rect1832" />
  <rect
     x="271"
     y="177"
     width="26"
     height="32"
     class="terminal"
     rx="10"
     id="rect1834"
     style="fill:#00ff00" />
  <text
     class="terminal"
     x="281"
     y="197"
     id="text1836">(</text>
  <a
     xlink:href="#in_sum_expr"
     xlink:title="in_sum_expr"
     id="a1844">
    <rect
       x="411"
       y="3"
       width="98"
       height="32"
       id="rect1838" />
    <rect
       x="409"
       y="1"
       width="98"
       height="32"
       class="nonterminal"
       id="rect1840"
       style="fill:#ffff00" />
    <text
       class="nonterminal"
       x="419"
       y="21"
       id="text1842">in_sum_expr</text>
  </a>
  <a
     xlink:href="#GROUP_CONCAT_SYM"
     xlink:title="GROUP_CONCAT_SYM"
     id="a1852">
    <rect
       x="51"
       y="487"
       width="154"
       height="32"
       id="rect1846" />
    <rect
       x="49"
       y="485"
       width="154"
       height="32"
       class="nonterminal"
       id="rect1848"
       style="fill:#00ff00" />
    <text
       class="nonterminal"
       x="59"
       y="505"
       id="text1850">GROUP_CONCAT_SYM</text>
  </a>
  <rect
     x="225"
     y="487"
     width="26"
     height="32"
     rx="10"
     id="rect1854" />
  <rect
     x="223"
     y="485"
     width="26"
     height="32"
     class="terminal"
     rx="10"
     id="rect1856"
     style="fill:#00ff00" />
  <text
     class="terminal"
     x="233"
     y="505"
     id="text1858">(</text>
  <a
     xlink:href="#opt_distinct"
     xlink:title="opt_distinct"
     id="a1866">
    <rect
       x="271"
       y="487"
       width="90"
       height="32"
       id="rect1860" />
    <rect
       x="269"
       y="485"
       width="90"
       height="32"
       class="nonterminal"
       id="rect1862"
       style="fill:#00ff00" />
    <text
       class="nonterminal"
       x="279"
       y="505"
       id="text1864">opt_distinct</text>
  </a>
  <a
     xlink:href="#expr_list"
     xlink:title="expr_list"
     id="a1874">
    <rect
       x="381"
       y="487"
       width="70"
       height="32"
       id="rect1868" />
    <rect
       x="379"
       y="485"
       width="70"
       height="32"
       class="nonterminal"
       id="rect1870"
       style="fill:#ffff00" />
    <text
       class="nonterminal"
       x="389"
       y="505"
       id="text1872">expr_list</text>
  </a>
  <a
     xlink:href="#opt_gorder_clause"
     xlink:title="opt_gorder_clause"
     id="a1882">
    <rect
       x="471"
       y="487"
       width="132"
       height="32"
       id="rect1876" />
    <rect
       x="469"
       y="485"
       width="132"
       height="32"
       class="nonterminal"
       id="rect1878"
       style="fill:#ff0000" />
    <text
       class="nonterminal"
       x="479"
       y="505"
       id="text1880">opt_gorder_clause</text>
  </a>
  <a
     xlink:href="#opt_gconcat_separator"
     xlink:title="opt_gconcat_separator"
     id="a1890">
    <rect
       x="623"
       y="487"
       width="160"
       height="32"
       id="rect1884" />
    <rect
       x="621"
       y="485"
       width="160"
       height="32"
       class="nonterminal"
       id="rect1886"
       style="fill:#ff0000" />
    <text
       class="nonterminal"
       x="631"
       y="505"
       id="text1888">opt_gconcat_separator</text>
  </a>
  <a
     xlink:href="#COUNT_SYM"
     xlink:title="COUNT_SYM"
     id="a1898">
    <rect
       x="51"
       y="531"
       width="96"
       height="32"
       id="rect1892" />
    <rect
       x="49"
       y="529"
       width="96"
       height="32"
       class="nonterminal"
       id="rect1894"
       style="fill:#00ff00" />
    <text
       class="nonterminal"
       x="59"
       y="549"
       id="text1896">COUNT_SYM</text>
  </a>
  <rect
     x="167"
     y="531"
     width="26"
     height="32"
     rx="10"
     id="rect1900" />
  <rect
     x="165"
     y="529"
     width="26"
     height="32"
     class="terminal"
     rx="10"
     id="rect1902"
     style="fill:#00ff00" />
  <text
     class="terminal"
     x="175"
     y="549"
     id="text1904">(</text>
  <a
     xlink:href="#opt_all"
     xlink:title="opt_all"
     id="a1912">
    <rect
       x="233"
       y="531"
       width="60"
       height="32"
       id="rect1906" />
    <rect
       x="231"
       y="529"
       width="60"
       height="32"
       class="nonterminal"
       id="rect1908"
       style="fill:#00ff00" />
    <text
       class="nonterminal"
       x="241"
       y="549"
       id="text1910">opt_all</text>
  </a>
  <rect
     x="313"
     y="531"
     width="28"
     height="32"
     rx="10"
     id="rect1914" />
  <rect
     x="311"
     y="529"
     width="28"
     height="32"
     class="terminal"
     rx="10"
     id="rect1916"
     style="fill:#00ff00" />
  <text
     class="terminal"
     x="321"
     y="549"
     id="text1918">*</text>
  <a
     xlink:href="#in_sum_expr"
     xlink:title="in_sum_expr"
     id="a1926">
    <rect
       x="233"
       y="575"
       width="98"
       height="32"
       id="rect1920" />
    <rect
       x="231"
       y="573"
       width="98"
       height="32"
       class="nonterminal"
       id="rect1922"
       style="fill:#ffff00" />
    <text
       class="nonterminal"
       x="241"
       y="593"
       id="text1924">in_sum_expr</text>
  </a>
  <a
     xlink:href="#DISTINCT"
     xlink:title="DISTINCT"
     id="a1934">
    <rect
       x="233"
       y="619"
       width="74"
       height="32"
       id="rect1928" />
    <rect
       x="231"
       y="617"
       width="74"
       height="32"
       class="nonterminal"
       id="rect1930"
       style="fill:#00ff00" />
    <text
       class="nonterminal"
       x="241"
       y="637"
       id="text1932">DISTINCT</text>
  </a>
  <a
     xlink:href="#expr_list"
     xlink:title="expr_list"
     id="a1942">
    <rect
       x="327"
       y="619"
       width="70"
       height="32"
       id="rect1936" />
    <rect
       x="325"
       y="617"
       width="70"
       height="32"
       class="nonterminal"
       id="rect1938"
       style="fill:#ffff00" />
    <text
       class="nonterminal"
       x="335"
       y="637"
       id="text1940">expr_list</text>
  </a>
  <rect
     x="823"
     y="3"
     width="26"
     height="32"
     rx="10"
     id="rect1944" />
  <rect
     x="821"
     y="1"
     width="26"
     height="32"
     class="terminal"
     rx="10"
     id="rect1946"
     style="fill:#00ff00" />
  <text
     class="terminal"
     x="831"
     y="21"
     id="text1948">)</text>
  <path
     class="line"
     d="m17 17 h2 m60 0 h10 m78 0 h10 m0 0 h2 m-120 0 h20 m100 0 h20 m-140 0 q10 0 10 10 m120 0 q0 -10 10 -10 m-130 10 v24 m120 0 v-24 m-120 24 q0 10 10 10 m100 0 q10 0 10 -10 m-110 10 h10 m76 0 h10 m0 0 h4 m-110 -10 v20 m120 0 v-20 m-120 20 v24 m120 0 v-24 m-120 24 q0 10 10 10 m100 0 q10 0 10 -10 m-110 10 h10 m80 0 h10 m-110 -10 v20 m120 0 v-20 m-120 20 v24 m120 0 v-24 m-120 24 q0 10 10 10 m100 0 q10 0 10 -10 m-110 10 h10 m80 0 h10 m20 -132 h10 m26 0 h10 m20 0 h10 m0 0 h84 m-114 0 h20 m94 0 h20 m-134 0 q10 0 10 10 m114 0 q0 -10 10 -10 m-124 10 v12 m114 0 v-12 m-114 12 q0 10 10 10 m94 0 q10 0 10 -10 m-104 10 h10 m74 0 h10 m-320 -32 h20 m320 0 h20 m-360 0 q10 0 10 10 m340 0 q0 -10 10 -10 m-350 10 v156 m340 0 v-156 m-340 156 q0 10 10 10 m320 0 q10 0 10 -10 m-310 10 h10 m72 0 h10 m0 0 h70 m-182 0 h20 m162 0 h20 m-202 0 q10 0 10 10 m182 0 q0 -10 10 -10 m-192 10 v24 m182 0 v-24 m-182 24 q0 10 10 10 m162 0 q10 0 10 -10 m-172 10 h10 m64 0 h10 m0 0 h78 m-172 -10 v20 m182 0 v-20 m-182 20 v24 m182 0 v-24 m-182 24 q0 10 10 10 m162 0 q10 0 10 -10 m-172 10 h10 m72 0 h10 m0 0 h70 m-172 -10 v20 m182 0 v-20 m-182 20 v24 m182 0 v-24 m-182 24 q0 10 10 10 m162 0 q10 0 10 -10 m-172 10 h10 m76 0 h10 m0 0 h66 m-172 -10 v20 m182 0 v-20 m-182 20 v24 m182 0 v-24 m-182 24 q0 10 10 10 m162 0 q10 0 10 -10 m-172 10 h10 m114 0 h10 m0 0 h28 m-172 -10 v20 m182 0 v-20 m-182 20 v24 m182 0 v-24 m-182 24 q0 10 10 10 m162 0 q10 0 10 -10 m-172 10 h10 m142 0 h10 m-172 -10 v20 m182 0 v-20 m-182 20 v24 m182 0 v-24 m-182 24 q0 10 10 10 m162 0 q10 0 10 -10 m-172 10 h10 m118 0 h10 m0 0 h24 m20 -264 h10 m26 0 h10 m0 0 h72 m20 -176 h10 m98 0 h10 m0 0 h274 m-772 0 h20 m752 0 h20 m-792 0 q10 0 10 10 m772 0 q0 -10 10 -10 m-782 10 v464 m772 0 v-464 m-772 464 q0 10 10 10 m752 0 q10 0 10 -10 m-762 10 h10 m154 0 h10 m0 0 h10 m26 0 h10 m0 0 h10 m90 0 h10 m0 0 h10 m70 0 h10 m0 0 h10 m132 0 h10 m0 0 h10 m160 0 h10 m-762 -10 v20 m772 0 v-20 m-772 20 v24 m772 0 v-24 m-772 24 q0 10 10 10 m752 0 q10 0 10 -10 m-762 10 h10 m96 0 h10 m0 0 h10 m26 0 h10 m20 0 h10 m60 0 h10 m0 0 h10 m28 0 h10 m0 0 h56 m-204 0 h20 m184 0 h20 m-224 0 q10 0 10 10 m204 0 q0 -10 10 -10 m-214 10 v24 m204 0 v-24 m-204 24 q0 10 10 10 m184 0 q10 0 10 -10 m-194 10 h10 m98 0 h10 m0 0 h66 m-194 -10 v20 m204 0 v-20 m-204 20 v24 m204 0 v-24 m-204 24 q0 10 10 10 m184 0 q10 0 10 -10 m-194 10 h10 m74 0 h10 m0 0 h10 m70 0 h10 m20 -88 h366 m20 -528 h10 m26 0 h10 m3 0 h-3"
     id="path1950" />
  <polygon
     points="867 17 875 13 875 21"
     id="polygon1952" />
  <polygon
     points="867 17 859 13 859 21"
     id="polygon1954" />
</svg>
